<?xml version="1.0" encoding="utf-8"?>
<svg viewBox="0 0 310 276" xmlns="http://www.w3.org/2000/svg" xmlns:bx="http://www.boxy-svg.com/bx">
  <g transform="matrix(0.9999999999999999, 0, 0, 0.9999999999999999, -0.6796622806900956, 0.4398591319429066)">
    <path d="M 169.207 32.456 L 126.96 32.456 L 127.177 101.743 L 186.055 101.646 L 175.841 86.824 C 201.762 73.116 196.5 39.559 169.207 32.456 Z" style="stroke: rgb(123, 122, 122); fill: none;" bx:origin="0.5 0.5"/>
    <path d="M 81.828 32.162 L 9.724 164.62" style="stroke: rgb(123, 123, 123); fill: none;"/>
    <path d="M 86.101 5.457 C 79.554 17.681 9.327 145.989 9.19 145.926" style="stroke: rgb(125, 125, 125); fill: none;"/>
    <path d="M 55.743 4.923 C 67.297 26.637 166.791 206.241 166.681 206.263" style="stroke: rgb(117, 117, 117); fill: none;"/>
    <path d="M 149.659 48.719 L 305.617 275.713" style="stroke: rgb(123, 123, 123); fill: none;"/>
  </g>
  <path d="M 70.807 33.341 L 144.102 32.712 L 126.567 66.405 L 126.567 102.301 L 88.025 102.301 L 88.025 65.145 L 70.807 33.341 Z" style="stroke: rgb(115, 115, 115); fill: none;" bx:origin="0.5 0.5"/>
  <path d="M 108.364 102.361 L 70.738 33.202 L 33.111 102.361 L 108.364 102.361 Z" style="stroke: rgb(117, 117, 117); fill: none;"/>
</svg>